<svg xmlns="http://www.w3.org/2000/svg" viewBox="0 0 32 32"><defs><style>.cls-1{fill:#231f20;}</style></defs><g id="baggage"><path class="cls-1" d="M29,25H28V20.66A2.62,2.62,0,0,0,25.42,18H25v-.07A2.93,2.93,0,0,0,22.07,15h-.14A2.93,2.93,0,0,0,19,17.93V18h-.42A2.62,2.62,0,0,0,16,20.66V25H11.23A1.31,1.31,0,0,1,10,23.62V12.38A1.31,1.31,0,0,1,11.23,11h6.54A1.31,1.31,0,0,1,19,12.38V13a1,1,0,0,0,2,0v-.62A3.31,3.31,0,0,0,18,9a3.48,3.48,0,0,0-6.9,0A3.31,3.31,0,0,0,8,12.38V23.62A3.51,3.51,0,0,0,8.29,25H7.52A.52.52,0,0,1,7,24.48V6.7A2.7,2.7,0,0,0,4.3,4H3A1,1,0,0,0,3,6H4.3a.7.7,0,0,1,.7.7V24.48A2.52,2.52,0,0,0,7.52,27h.53a2.73,2.73,0,0,0-.05.5,2.5,2.5,0,0,0,5,0A2.73,2.73,0,0,0,13,27h8.1a2.73,2.73,0,0,0-.05.5,2.5,2.5,0,0,0,5,0A2.73,2.73,0,0,0,26,27H29a1,1,0,0,0,0-2ZM14.5,8a1.5,1.5,0,0,1,1.41,1H13.09A1.5,1.5,0,0,1,14.5,8ZM21,17.93a.93.93,0,0,1,.93-.93h.14a.93.93,0,0,1,.93.93V18H21ZM10.5,28a.5.5,0,1,1,.5-.5A.5.5,0,0,1,10.5,28ZM24,27.5a.5.5,0,1,1-.5-.5A.5.5,0,0,1,24,27.5ZM18,25V20.66a.62.62,0,0,1,.58-.66h6.84a.62.62,0,0,1,.58.66V25Z"/><path class="cls-1" d="M12,13V23a1,1,0,0,0,2,0V13a1,1,0,0,0-2,0Z"/><path class="cls-1" d="M15,13v4a1,1,0,0,0,2,0V13a1,1,0,0,0-2,0Z"/></g></svg>